{
    "asset" : {
        "generator" : "Khronos glTF Blender I/O v1.7.33",
        "version" : "2.0"
    },
    "scene" : 0,
    "scenes" : [
        {
            "name" : "Scene",
            "nodes" : [
                0,
                1
            ]
        }
    ],
    "nodes" : [
        {
            "mesh" : 0,
            "name" : "Cube",
            "scale" : [
                6.003787040710449,
                2.4909491539001465,
                6.003787040710449
            ],
            "translation" : [
                -8.380578994750977,
                0,
                -6.711010456085205
            ]
        },
        {
            "mesh" : 1,
            "name" : "\u7acb\u65b9\u4f53",
            "scale" : [
                0.8274147510528564,
                1,
                1
            ],
            "translation" : [
                -11.927861213684082,
                0,
                -1.8952422142028809
            ]
        }
    ],
    "materials" : [
        {
            "doubleSided" : true,
            "name" : "Material",
            "pbrMetallicRoughness" : {
                "metallicFactor" : 0,
                "roughnessFactor" : 0.4000000059604645
            }
        },
        {
            "doubleSided" : true,
            "name" : "\u30de\u30c6\u30ea\u30a2\u30eb.001",
            "pbrMetallicRoughness" : {
                "baseColorFactor" : [
                    0.37781035900115967,
                    0.4200252294540405,
                    0.33817994594573975,
                    1
                ],
                "metallicFactor" : 0,
                "roughnessFactor" : 0.5
            }
        },
        {
            "doubleSided" : true,
            "name" : "\u30de\u30c6\u30ea\u30a2\u30eb",
            "pbrMetallicRoughness" : {
                "baseColorFactor" : [
                    0.538224995136261,
                    0.538224995136261,
                    0.538224995136261,
                    1
                ],
                "metallicFactor" : 0,
                "roughnessFactor" : 0.5
            }
        }
    ],
    "meshes" : [
        {
            "name" : "Cube",
            "primitives" : [
                {
                    "attributes" : {
                        "POSITION" : 0,
                        "NORMAL" : 1,
                        "TEXCOORD_0" : 2
                    },
                    "indices" : 3,
                    "material" : 0
                },
                {
                    "attributes" : {
                        "POSITION" : 4,
                        "NORMAL" : 5,
                        "TEXCOORD_0" : 6
                    },
                    "indices" : 7,
                    "material" : 1
                }
            ]
        },
        {
            "name" : "\u7acb\u65b9\u4f53",
            "primitives" : [
                {
                    "attributes" : {
                        "POSITION" : 8,
                        "NORMAL" : 9,
                        "TEXCOORD_0" : 10
                    },
                    "indices" : 11,
                    "material" : 2
                }
            ]
        }
    ],
    "accessors" : [
        {
            "bufferView" : 0,
            "componentType" : 5126,
            "count" : 241,
            "max" : [
                2.675198793411255,
                1.146369218826294,
                1.1308739185333252
            ],
            "min" : [
                -1.0000100135803223,
                -9.999999747378752e-06,
                -1.0000100135803223
            ],
            "type" : "VEC3"
        },
        {
            "bufferView" : 1,
            "componentType" : 5126,
            "count" : 241,
            "type" : "VEC3"
        },
        {
            "bufferView" : 2,
            "componentType" : 5126,
            "count" : 241,
            "type" : "VEC2"
        },
        {
            "bufferView" : 3,
            "componentType" : 5123,
            "count" : 522,
            "type" : "SCALAR"
        },
        {
            "bufferView" : 4,
            "componentType" : 5126,
            "count" : 242,
            "max" : [
                2.675198793411255,
                1.002834677696228,
                1.1308739185333252
            ],
            "min" : [
                -1.0000100135803223,
                -9.999999747378752e-06,
                -1.0000100135803223
            ],
            "type" : "VEC3"
        },
        {
            "bufferView" : 5,
            "componentType" : 5126,
            "count" : 242,
            "type" : "VEC3"
        },
        {
            "bufferView" : 6,
            "componentType" : 5126,
            "count" : 242,
            "type" : "VEC2"
        },
        {
            "bufferView" : 7,
            "componentType" : 5123,
            "count" : 426,
            "type" : "SCALAR"
        },
        {
            "bufferView" : 8,
            "componentType" : 5126,
            "count" : 7662,
            "max" : [
                17.100454330444336,
                0.9389047026634216,
                0.679988443851471
            ],
            "min" : [
                -0.435880184173584,
                0,
                -10.442750930786133
            ],
            "type" : "VEC3"
        },
        {
            "bufferView" : 9,
            "componentType" : 5126,
            "count" : 7662,
            "type" : "VEC3"
        },
        {
            "bufferView" : 10,
            "componentType" : 5126,
            "count" : 7662,
            "type" : "VEC2"
        },
        {
            "bufferView" : 11,
            "componentType" : 5123,
            "count" : 13728,
            "type" : "SCALAR"
        }
    ],
    "bufferViews" : [
        {
            "buffer" : 0,
            "byteLength" : 2892,
            "byteOffset" : 0
        },
        {
            "buffer" : 0,
            "byteLength" : 2892,
            "byteOffset" : 2892
        },
        {
            "buffer" : 0,
            "byteLength" : 1928,
            "byteOffset" : 5784
        },
        {
            "buffer" : 0,
            "byteLength" : 1044,
            "byteOffset" : 7712
        },
        {
            "buffer" : 0,
            "byteLength" : 2904,
            "byteOffset" : 8756
        },
        {
            "buffer" : 0,
            "byteLength" : 2904,
            "byteOffset" : 11660
        },
        {
            "buffer" : 0,
            "byteLength" : 1936,
            "byteOffset" : 14564
        },
        {
            "buffer" : 0,
            "byteLength" : 852,
            "byteOffset" : 16500
        },
        {
            "buffer" : 0,
            "byteLength" : 91944,
            "byteOffset" : 17352
        },
        {
            "buffer" : 0,
            "byteLength" : 91944,
            "byteOffset" : 109296
        },
        {
            "buffer" : 0,
            "byteLength" : 61296,
            "byteOffset" : 201240
        },
        {
            "buffer" : 0,
            "byteLength" : 27456,
            "byteOffset" : 262536
        }
    ],
    "buffers" : [
        {
            "byteLength" : 289992,
            "uri" : "adino.bin"
        }
    ]
}
