{
    "asset" : {
        "generator" : "Khronos glTF Blender I/O v3.3.27",
        "version" : "2.0"
    },
    "scene" : 0,
    "scenes" : [
        {
            "name" : "Scene",
            "nodes" : [
                0
            ]
        }
    ],
    "nodes" : [
        {
            "mesh" : 0,
            "name" : "\u5e73\u9762",
            "rotation" : [
                0,
                1,
                0,
                1.6292068494294654e-07
            ],
            "scale" : [
                4.444385051727295,
                4.444385051727295,
                4.444385051727295
            ],
            "translation" : [
                6.838850498199463,
                0,
                -6.583576202392578
            ]
        }
    ],
    "materials" : [
        {
            "doubleSided" : true,
            "name" : "\u30de\u30c6\u30ea\u30a2\u30eb",
            "pbrMetallicRoughness" : {
                "baseColorFactor" : [
                    0.29701265692710876,
                    0.41837579011917114,
                    0.8000000715255737,
                    1
                ],
                "metallicFactor" : 0,
                "roughnessFactor" : 0.5
            }
        },
        {
            "doubleSided" : true,
            "name" : "\u30de\u30c6\u30ea\u30a2\u30eb.001",
            "pbrMetallicRoughness" : {
                "baseColorFactor" : [
                    0.3221833109855652,
                    0.548850953578949,
                    0.16229359805583954,
                    1
                ],
                "metallicFactor" : 0,
                "roughnessFactor" : 0.5
            }
        },
        {
            "doubleSided" : true,
            "name" : "\u30de\u30c6\u30ea\u30a2\u30eb.002",
            "pbrMetallicRoughness" : {
                "baseColorFactor" : [
                    0.8000000715255737,
                    0.5658969283103943,
                    0.2668299973011017,
                    1
                ],
                "metallicFactor" : 0,
                "roughnessFactor" : 0.5
            }
        },
        {
            "doubleSided" : true,
            "name" : "\u30de\u30c6\u30ea\u30a2\u30eb.003",
            "pbrMetallicRoughness" : {
                "baseColorFactor" : [
                    0.8000000715255737,
                    0.7935142517089844,
                    0.7935142517089844,
                    1
                ],
                "metallicFactor" : 0,
                "roughnessFactor" : 0.5
            }
        },
        {
            "doubleSided" : true,
            "name" : "\u30de\u30c6\u30ea\u30a2\u30eb.004",
            "pbrMetallicRoughness" : {
                "baseColorFactor" : [
                    0.07323513180017471,
                    0.07323513180017471,
                    0.07323513180017471,
                    1
                ],
                "metallicFactor" : 0,
                "roughnessFactor" : 0.5
            }
        },
        {
            "doubleSided" : true,
            "name" : "\u30de\u30c6\u30ea\u30a2\u30eb.005",
            "pbrMetallicRoughness" : {
                "baseColorFactor" : [
                    0.08001118153333664,
                    0.028552856296300888,
                    0.010429237969219685,
                    1
                ],
                "metallicFactor" : 0,
                "roughnessFactor" : 0.5
            }
        }
    ],
    "meshes" : [
        {
            "name" : "\u5e73\u9762",
            "primitives" : [
                {
                    "attributes" : {
                        "POSITION" : 0,
                        "NORMAL" : 1,
                        "TEXCOORD_0" : 2
                    },
                    "indices" : 3,
                    "material" : 0
                },
                {
                    "attributes" : {
                        "POSITION" : 4,
                        "NORMAL" : 5,
                        "TEXCOORD_0" : 6
                    },
                    "indices" : 7,
                    "material" : 1
                },
                {
                    "attributes" : {
                        "POSITION" : 8,
                        "NORMAL" : 9,
                        "TEXCOORD_0" : 10
                    },
                    "indices" : 11,
                    "material" : 2
                },
                {
                    "attributes" : {
                        "POSITION" : 12,
                        "NORMAL" : 13,
                        "TEXCOORD_0" : 14
                    },
                    "indices" : 15,
                    "material" : 3
                },
                {
                    "attributes" : {
                        "POSITION" : 16,
                        "NORMAL" : 17,
                        "TEXCOORD_0" : 18
                    },
                    "indices" : 19,
                    "material" : 4
                },
                {
                    "attributes" : {
                        "POSITION" : 20,
                        "NORMAL" : 21,
                        "TEXCOORD_0" : 22
                    },
                    "indices" : 23,
                    "material" : 5
                }
            ]
        }
    ],
    "accessors" : [
        {
            "bufferView" : 0,
            "componentType" : 5126,
            "count" : 20,
            "max" : [
                1.3429317474365234,
                0,
                -0.5373338460922241
            ],
            "min" : [
                0.6669788956642151,
                0,
                -1.2000219821929932
            ],
            "type" : "VEC3"
        },
        {
            "bufferView" : 1,
            "componentType" : 5126,
            "count" : 20,
            "type" : "VEC3"
        },
        {
            "bufferView" : 2,
            "componentType" : 5126,
            "count" : 20,
            "type" : "VEC2"
        },
        {
            "bufferView" : 3,
            "componentType" : 5123,
            "count" : 54,
            "type" : "SCALAR"
        },
        {
            "bufferView" : 4,
            "componentType" : 5126,
            "count" : 18,
            "max" : [
                0.6483343839645386,
                0,
                -0.5373338460922241
            ],
            "min" : [
                -0.390459805727005,
                0,
                -1.2000219821929932
            ],
            "type" : "VEC3"
        },
        {
            "bufferView" : 5,
            "componentType" : 5126,
            "count" : 18,
            "type" : "VEC3"
        },
        {
            "bufferView" : 6,
            "componentType" : 5126,
            "count" : 18,
            "type" : "VEC2"
        },
        {
            "bufferView" : 7,
            "componentType" : 5123,
            "count" : 36,
            "type" : "SCALAR"
        },
        {
            "bufferView" : 8,
            "componentType" : 5126,
            "count" : 44,
            "max" : [
                1.3429317474365234,
                0,
                0.026860922574996948
            ],
            "min" : [
                0.40380287170410156,
                0,
                -0.517992377281189
            ],
            "type" : "VEC3"
        },
        {
            "bufferView" : 9,
            "componentType" : 5126,
            "count" : 44,
            "type" : "VEC3"
        },
        {
            "bufferView" : 10,
            "componentType" : 5126,
            "count" : 44,
            "type" : "VEC2"
        },
        {
            "bufferView" : 11,
            "componentType" : 5123,
            "count" : 162,
            "type" : "SCALAR"
        },
        {
            "bufferView" : 12,
            "componentType" : 5126,
            "count" : 755,
            "max" : [
                2.510565996170044,
                0.5660881996154785,
                3.806687831878662
            ],
            "min" : [
                -1.2749851942062378,
                0,
                -1.656198263168335
            ],
            "type" : "VEC3"
        },
        {
            "bufferView" : 13,
            "componentType" : 5126,
            "count" : 755,
            "type" : "VEC3"
        },
        {
            "bufferView" : 14,
            "componentType" : 5126,
            "count" : 755,
            "type" : "VEC2"
        },
        {
            "bufferView" : 15,
            "componentType" : 5123,
            "count" : 1335,
            "type" : "SCALAR"
        },
        {
            "bufferView" : 16,
            "componentType" : 5126,
            "count" : 196,
            "max" : [
                2.4607789516448975,
                0,
                3.806687831878662
            ],
            "min" : [
                -1.2117729187011719,
                0,
                -1.2640937566757202
            ],
            "type" : "VEC3"
        },
        {
            "bufferView" : 17,
            "componentType" : 5126,
            "count" : 196,
            "type" : "VEC3"
        },
        {
            "bufferView" : 18,
            "componentType" : 5126,
            "count" : 196,
            "type" : "VEC2"
        },
        {
            "bufferView" : 19,
            "componentType" : 5123,
            "count" : 579,
            "type" : "SCALAR"
        },
        {
            "bufferView" : 20,
            "componentType" : 5126,
            "count" : 60,
            "max" : [
                2.147186279296875,
                0.5660881996154785,
                -1.2640937566757202
            ],
            "min" : [
                1.4216358661651611,
                0,
                -1.3126477003097534
            ],
            "type" : "VEC3"
        },
        {
            "bufferView" : 21,
            "componentType" : 5126,
            "count" : 60,
            "type" : "VEC3"
        },
        {
            "bufferView" : 22,
            "componentType" : 5126,
            "count" : 60,
            "type" : "VEC2"
        },
        {
            "bufferView" : 23,
            "componentType" : 5123,
            "count" : 114,
            "type" : "SCALAR"
        }
    ],
    "bufferViews" : [
        {
            "buffer" : 0,
            "byteLength" : 240,
            "byteOffset" : 0,
            "target" : 34962
        },
        {
            "buffer" : 0,
            "byteLength" : 240,
            "byteOffset" : 240,
            "target" : 34962
        },
        {
            "buffer" : 0,
            "byteLength" : 160,
            "byteOffset" : 480,
            "target" : 34962
        },
        {
            "buffer" : 0,
            "byteLength" : 108,
            "byteOffset" : 640,
            "target" : 34963
        },
        {
            "buffer" : 0,
            "byteLength" : 216,
            "byteOffset" : 748,
            "target" : 34962
        },
        {
            "buffer" : 0,
            "byteLength" : 216,
            "byteOffset" : 964,
            "target" : 34962
        },
        {
            "buffer" : 0,
            "byteLength" : 144,
            "byteOffset" : 1180,
            "target" : 34962
        },
        {
            "buffer" : 0,
            "byteLength" : 72,
            "byteOffset" : 1324,
            "target" : 34963
        },
        {
            "buffer" : 0,
            "byteLength" : 528,
            "byteOffset" : 1396,
            "target" : 34962
        },
        {
            "buffer" : 0,
            "byteLength" : 528,
            "byteOffset" : 1924,
            "target" : 34962
        },
        {
            "buffer" : 0,
            "byteLength" : 352,
            "byteOffset" : 2452,
            "target" : 34962
        },
        {
            "buffer" : 0,
            "byteLength" : 324,
            "byteOffset" : 2804,
            "target" : 34963
        },
        {
            "buffer" : 0,
            "byteLength" : 9060,
            "byteOffset" : 3128,
            "target" : 34962
        },
        {
            "buffer" : 0,
            "byteLength" : 9060,
            "byteOffset" : 12188,
            "target" : 34962
        },
        {
            "buffer" : 0,
            "byteLength" : 6040,
            "byteOffset" : 21248,
            "target" : 34962
        },
        {
            "buffer" : 0,
            "byteLength" : 2670,
            "byteOffset" : 27288,
            "target" : 34963
        },
        {
            "buffer" : 0,
            "byteLength" : 2352,
            "byteOffset" : 29960,
            "target" : 34962
        },
        {
            "buffer" : 0,
            "byteLength" : 2352,
            "byteOffset" : 32312,
            "target" : 34962
        },
        {
            "buffer" : 0,
            "byteLength" : 1568,
            "byteOffset" : 34664,
            "target" : 34962
        },
        {
            "buffer" : 0,
            "byteLength" : 1158,
            "byteOffset" : 36232,
            "target" : 34963
        },
        {
            "buffer" : 0,
            "byteLength" : 720,
            "byteOffset" : 37392,
            "target" : 34962
        },
        {
            "buffer" : 0,
            "byteLength" : 720,
            "byteOffset" : 38112,
            "target" : 34962
        },
        {
            "buffer" : 0,
            "byteLength" : 480,
            "byteOffset" : 38832,
            "target" : 34962
        },
        {
            "buffer" : 0,
            "byteLength" : 228,
            "byteOffset" : 39312,
            "target" : 34963
        }
    ],
    "buffers" : [
        {
            "byteLength" : 39540,
            "uri" : "adino.bin"
        }
    ]
}
